<svg width="118" height="24" viewBox="0 0 118 24" fill="none" xmlns="http://www.w3.org/2000/svg">
<rect width="118" height="24" rx="2" fill="#FAAF3F"/>
<path d="M11.9209 12.6846V9.51953C11.9209 8.39844 12.2513 7.53027 12.9121 6.91504C13.5775 6.2998 14.5163 5.99219 15.7285 5.99219C16.7676 5.99219 17.6266 6.27702 18.3057 6.84668C18.9984 7.43001 19.3447 8.27311 19.3447 9.37598V9.51953H17.6631V9.37598C17.6631 8.76986 17.4626 8.31413 17.0615 8.00879C16.6605 7.68978 16.2116 7.53027 15.7148 7.53027C15.0176 7.53027 14.4912 7.69206 14.1357 8.01562C13.7803 8.33919 13.6025 8.80176 13.6025 9.40332V12.7939C13.6025 13.3955 13.7803 13.8581 14.1357 14.1816C14.4912 14.5052 15.0176 14.667 15.7148 14.667C16.2116 14.667 16.6605 14.5143 17.0615 14.209C17.4626 13.89 17.6631 13.4274 17.6631 12.8213V12.6846H19.3447V12.8213C19.3447 13.9287 18.9984 14.7741 18.3057 15.3574C17.6266 15.9271 16.7676 16.2119 15.7285 16.2119C14.5163 16.2119 13.5775 15.9043 12.9121 15.2891C12.2513 14.6738 11.9209 13.8057 11.9209 12.6846ZM21.2342 14.5303H21.993C22.353 14.0518 22.6287 13.5345 22.8201 12.9785C23.0161 12.4089 23.1141 11.5908 23.1141 10.5244V6.19727H29.1434V14.5303H30.2918V17.9619H28.7537V16H22.7723V17.9619H21.2342V14.5303ZM23.7977 14.5303H27.4686V7.66699H24.6521V10.5244C24.6521 11.2399 24.6043 11.8711 24.5086 12.418C24.4174 12.9375 24.3195 13.3431 24.2146 13.6348C24.1189 13.8991 23.9799 14.1976 23.7977 14.5303ZM32.7418 16V6.19727H39.0309V7.66699H34.4234V10.3877H38.3746V11.7891H34.4234V14.5303H39.0445V16H32.7418ZM40.5785 16V14.4619H40.8451C41.4421 14.4619 41.8546 14.209 42.0824 13.7031C42.3057 13.1882 42.4174 12.2699 42.4174 10.9482V6.19727H48.5355V16H46.8539V7.66699H43.9555V11.4336C43.9555 14.4779 42.9392 16 40.9066 16H40.5785ZM50.7736 16V15.4395L54.2736 6.19727H55.9279L59.4279 15.4395V16H57.7736L56.9055 13.5801H53.2072L52.3254 16H50.7736ZM53.7131 12.1787H56.3996L55.0734 8.43945L53.7131 12.1787ZM61.666 16V6.19727H63.3477V12.9922L67.6064 6.19727H69.1445V16H67.4629V9.21191L63.2109 16H61.666ZM63.1494 3.73633V3.56543H64.4688V3.72266C64.4688 3.97786 64.5485 4.17839 64.708 4.32422C64.8675 4.46549 65.0999 4.53613 65.4053 4.53613C66.0387 4.53613 66.3555 4.26497 66.3555 3.72266V3.56543H67.6611V3.73633C67.6611 4.32422 67.4561 4.78451 67.0459 5.11719C66.6403 5.44531 66.0934 5.60938 65.4053 5.60938C64.7171 5.60938 64.168 5.44531 63.7578 5.11719C63.3522 4.78451 63.1494 4.32422 63.1494 3.73633ZM76.1432 12.6846V9.51953C76.1432 8.39844 76.4736 7.53027 77.1344 6.91504C77.7997 6.2998 78.7385 5.99219 79.9508 5.99219C80.9898 5.99219 81.8489 6.27702 82.5279 6.84668C83.2206 7.43001 83.567 8.27311 83.567 9.37598V9.51953H81.8854V9.37598C81.8854 8.76986 81.6848 8.31413 81.2838 8.00879C80.8827 7.68978 80.4339 7.53027 79.9371 7.53027C79.2398 7.53027 78.7135 7.69206 78.358 8.01562C78.0025 8.33919 77.8248 8.80176 77.8248 9.40332V12.7939C77.8248 13.3955 78.0025 13.8581 78.358 14.1816C78.7135 14.5052 79.2398 14.667 79.9371 14.667C80.4339 14.667 80.8827 14.5143 81.2838 14.209C81.6848 13.89 81.8854 13.4274 81.8854 12.8213V12.6846H83.567V12.8213C83.567 13.9287 83.2206 14.7741 82.5279 15.3574C81.8489 15.9271 80.9898 16.2119 79.9508 16.2119C78.7385 16.2119 77.7997 15.9043 77.1344 15.2891C76.4736 14.6738 76.1432 13.8057 76.1432 12.6846ZM85.3881 16V15.4395L88.8881 6.19727H90.5424L94.0424 15.4395V16H92.3881L91.5199 13.5801H87.8217L86.9398 16H85.3881ZM88.3275 12.1787H91.0141L89.6879 8.43945L88.3275 12.1787ZM96.2805 16V6.19727H97.9074L100.724 10.7773L103.533 6.19727H105.106V16H103.479V9.18457L101.237 12.835H100.163L97.9074 9.18457V16H96.2805Z" fill="white"/>
</svg>
