<svg width="14" height="14" viewBox="0 0 14 14" fill="none" xmlns="http://www.w3.org/2000/svg">
<g clip-path="url(#clip0_22_106)">
<path d="M13.9816 4.21175C13.9534 4.13706 13.8953 4.07756 13.8212 4.04767L12.5772 3.54578C12.5 3.14389 12.1947 2.82203 11.8019 2.72056L11.7348 1.94753C11.725 1.83442 11.6491 1.73786 11.5414 1.7016C11.4338 1.66536 11.315 1.6963 11.2387 1.78041L10.9195 2.13258L10.7221 1.44195C10.6881 1.3229 10.5812 1.23933 10.4574 1.23505C10.3329 1.23064 10.2212 1.30669 10.1791 1.42314L8.70464 5.4907C8.70464 5.4907 3.24314 5.74564 3.24085 5.74577C2.12093 5.81307 1.05993 5.21383 0.538549 4.21898C0.465286 4.07931 0.292709 4.02537 0.153067 4.0986C0.0133626 4.17183 -0.0405141 4.34441 0.0326858 4.48408C0.498792 5.37346 1.32433 5.99916 2.27091 6.22698C2.17265 6.34149 1.96152 6.62531 1.83806 7.07152C1.70381 7.5567 1.65543 8.33014 2.14904 9.31223L1.34844 10.3997C1.30167 10.4632 1.28327 10.5432 1.29758 10.6208L1.64994 12.5314C1.67491 12.6669 1.79304 12.7652 1.93078 12.7652H2.2897C2.37438 12.7652 2.45469 12.7276 2.50898 12.6626C2.56324 12.5976 2.58583 12.5118 2.57066 12.4285L2.34754 11.2029L4.70825 9.43071C4.7124 9.42756 4.70425 9.4341 4.70825 9.43071C4.93397 9.24112 5.09782 9.03231 5.21503 8.81763C6.4454 9.03364 8.12919 9.32594 9.20841 9.49975L9.6839 12.524C9.70577 12.6629 9.82542 12.7652 9.96601 12.7652H10.2613C10.4191 12.7652 10.5469 12.6374 10.5469 12.4797V9.4097C10.815 9.22662 10.9108 8.92043 10.9744 8.62056C10.9764 8.61113 11.6097 5.68825 11.6097 5.68825C11.729 5.70814 11.8496 5.71858 11.971 5.71858C12.8073 5.71858 13.5731 5.22896 13.9695 4.4408C14.0054 4.36954 14.0098 4.28647 13.9816 4.21175Z" fill="white"/>
</g>
<defs>
<clipPath id="clip0_22_106">
<rect width="14" height="14" fill="white"/>
</clipPath>
</defs>
</svg>
