<svg width="118" height="24" viewBox="0 0 118 24" fill="none" xmlns="http://www.w3.org/2000/svg">
<rect width="118" height="24" rx="2" fill="#FAAF3F"/>
<path d="M28.777 16V15.4395L31.2037 11.0166L28.9752 6.75781V6.19727H30.5133L32.7008 10.3604H33.9996V6.19727H35.6812V10.3604H36.9869L39.1676 6.19727H40.7057V6.75781L38.484 11.0166L40.9039 15.4395V16H39.2086L37.0279 11.8301H35.6812V16H33.9996V11.8301H32.6598L30.4723 16H28.777ZM43.2787 16V6.19727H49.5678V7.66699H44.9604V10.3877H48.9115V11.7891H44.9604V14.5303H49.5814V16H43.2787ZM51.1154 16V14.4619H51.382C51.979 14.4619 52.3915 14.209 52.6193 13.7031C52.8426 13.1882 52.9543 12.2699 52.9543 10.9482V6.19727H59.0725V16H57.3908V7.66699H54.4924V11.4336C54.4924 14.4779 53.4761 16 51.4436 16H51.1154ZM62.2881 16V6.19727H68.5771V7.66699H63.9697V10.3877H67.9209V11.7891H63.9697V14.5303H68.5908V16H62.2881ZM70.5486 12.8213H72.2303C72.2303 13.4183 72.4308 13.8763 72.8318 14.1953C73.2329 14.5098 73.757 14.667 74.4041 14.667C74.9874 14.667 75.4318 14.5417 75.7371 14.291C76.0424 14.0358 76.1951 13.6667 76.1951 13.1836C76.1951 12.7324 76.0424 12.3861 75.7371 12.1445C75.4318 11.8984 75.0011 11.7754 74.4451 11.7754H73.1395V10.374H74.4451C74.9236 10.374 75.2973 10.2555 75.5662 10.0186C75.8351 9.78158 75.9695 9.45117 75.9695 9.02734C75.9695 8.57617 75.8191 8.21387 75.5184 7.94043C75.2221 7.66699 74.812 7.53027 74.2879 7.53027C73.7365 7.53027 73.2944 7.6875 72.9617 8.00195C72.6336 8.31641 72.4695 8.77441 72.4695 9.37598H70.7879C70.7879 8.264 71.116 7.4209 71.7723 6.84668C72.424 6.27702 73.2625 5.99219 74.2879 5.99219C75.3361 5.99219 76.1609 6.25195 76.7625 6.77148C77.3641 7.29102 77.6648 7.98145 77.6648 8.84277C77.6648 9.79525 77.2205 10.5199 76.3318 11.0166C76.8195 11.1898 77.2 11.4609 77.4734 11.8301C77.7514 12.1947 77.8904 12.6458 77.8904 13.1836C77.8904 14.1133 77.576 14.8516 76.9471 15.3984C76.3182 15.9408 75.45 16.2119 74.3426 16.2119C73.2397 16.2119 72.3351 15.9271 71.6287 15.3574C70.9087 14.7741 70.5486 13.9287 70.5486 12.8213ZM80.2652 12.6846V9.51953C80.2652 8.42122 80.6093 7.5599 81.2975 6.93555C81.9902 6.30664 82.9313 5.99219 84.1207 5.99219C85.3056 5.99219 86.2421 6.30664 86.9303 6.93555C87.623 7.5599 87.9693 8.42122 87.9693 9.51953V12.6846C87.9693 13.7829 87.623 14.6465 86.9303 15.2754C86.2421 15.8997 85.3056 16.2119 84.1207 16.2119C82.9313 16.2119 81.9902 15.8997 81.2975 15.2754C80.6093 14.6465 80.2652 13.7829 80.2652 12.6846ZM81.9469 12.7666C81.9469 13.3363 82.1383 13.7965 82.5211 14.1475C82.9039 14.4938 83.4371 14.667 84.1207 14.667C84.8043 14.667 85.3352 14.4938 85.7135 14.1475C86.0963 13.7965 86.2877 13.3363 86.2877 12.7666V9.43066C86.2877 8.861 86.0963 8.40299 85.7135 8.05664C85.3352 7.70573 84.8043 7.53027 84.1207 7.53027C83.4371 7.53027 82.9039 7.70573 82.5211 8.05664C82.1383 8.40299 81.9469 8.861 81.9469 9.43066V12.7666Z" fill="white"/>
</svg>
